<svg width="24" height="24" viewBox="0 0 24 24" fill="none" xmlns="http://www.w3.org/2000/svg">
<path fill-rule="evenodd" clip-rule="evenodd" d="M11 3C11 2.44772 11.4477 2 12 2C12.5523 2 13 2.44772 13 3V5C13 5.55228 12.5523 6 12 6C11.4477 6 11 5.55228 11 5V3ZM11 19C11 18.4477 11.4477 18 12 18C12.5523 18 13 18.4477 13 19V21C13 21.5523 12.5523 22 12 22C11.4477 22 11 21.5523 11 21V19ZM21 11C21.5523 11 22 11.4477 22 12C22 12.5523 21.5523 13 21 13H19C18.4477 13 18 12.5523 18 12C18 11.4477 18.4477 11 19 11H21ZM5 11C5.55228 11 6 11.4477 6 12C6 12.5523 5.55228 13 5 13H3C2.44772 13 2 12.5523 2 12C2 11.4477 2.44772 11 3 11H5ZM12 14C13.1046 14 14 13.1046 14 12C14 10.8954 13.1046 10 12 10C10.8954 10 10 10.8954 10 12C10 13.1046 10.8954 14 12 14ZM12 16C14.2091 16 16 14.2091 16 12C16 9.79086 14.2091 8 12 8C9.79086 8 8 9.79086 8 12C8 14.2091 9.79086 16 12 16ZM4.92893 4.92893C4.53841 5.31946 4.53841 5.95262 4.92893 6.34315L6.34315 7.75736C6.73367 8.14788 7.36683 8.14788 7.75736 7.75736C8.14788 7.36684 8.14788 6.73367 7.75736 6.34315L6.34315 4.92893C5.95262 4.53841 5.31946 4.53841 4.92893 4.92893ZM16.2426 16.2426C15.8521 16.6332 15.8521 17.2663 16.2426 17.6569L17.6569 19.0711C18.0474 19.4616 18.6805 19.4616 19.0711 19.0711C19.4616 18.6805 19.4616 18.0474 19.0711 17.6569L17.6569 16.2426C17.2663 15.8521 16.6332 15.8521 16.2426 16.2426ZM19.0711 4.92893C18.6805 4.53841 18.0474 4.53841 17.6569 4.92893L16.2426 6.34315C15.8521 6.73367 15.8521 7.36683 16.2426 7.75736C16.6332 8.14788 17.2663 8.14788 17.6569 7.75736L19.0711 6.34315C19.4616 5.95262 19.4616 5.31946 19.0711 4.92893ZM7.75736 16.2426C7.36684 15.8521 6.73367 15.8521 6.34314 16.2426L4.92893 17.6569C4.53841 18.0474 4.53841 18.6805 4.92893 19.0711C5.31946 19.4616 5.95262 19.4616 6.34315 19.0711L7.75736 17.6569C8.14788 17.2663 8.14788 16.6332 7.75736 16.2426Z" fill="#ECAA00"/>
</svg>
