<svg width="24" height="24" viewBox="0 0 24 24" fill="none" xmlns="http://www.w3.org/2000/svg">
<path fill-rule="evenodd" clip-rule="evenodd" d="M11 6C11 5.44772 11.4477 5 12 5C12.5523 5 13 5.44772 13 6V7C13 7.55228 12.5523 8 12 8C11.4477 8 11 7.55228 11 7V6ZM12 10C14.973 10 17.441 12.1623 17.917 15H21C21.5523 15 22 15.4477 22 16C22 16.5523 21.5523 17 21 17H17.917H15.874H8.12601H6.08295H3C2.44772 17 2 16.5523 2 16C2 15.4477 2.44772 15 3 15H6.08295C6.55903 12.1623 9.027 10 12 10ZM8.12601 15H15.874C15.4299 13.2748 13.8638 12 12 12C10.1362 12 8.57005 13.2748 8.12601 15ZM17.5 6.47363C17.0217 6.19749 16.4101 6.36137 16.134 6.83966L15.634 7.70568C15.3578 8.18398 15.5217 8.79557 16 9.07171C16.4783 9.34785 17.0899 9.18398 17.366 8.70568L17.866 7.83966C18.1422 7.36137 17.9783 6.74978 17.5 6.47363ZM6.49998 6.47363C6.02169 6.74978 5.85782 7.36137 6.13396 7.83966L6.63396 8.70568C6.9101 9.18398 7.52169 9.34785 7.99998 9.07171C8.47828 8.79557 8.64215 8.18398 8.36601 7.70568L7.86601 6.83966C7.58987 6.36137 6.97828 6.19749 6.49998 6.47363ZM2.47371 10.5002C2.19757 10.9785 2.36144 11.5901 2.83974 11.8662L3.70576 12.3662C4.18405 12.6424 4.79564 12.4785 5.07179 12.0002C5.34793 11.5219 5.18405 10.9103 4.70576 10.6342L3.83974 10.1342C3.36144 9.85802 2.74985 10.0219 2.47371 10.5002ZM21.5263 10.4998C21.2501 10.0215 20.6385 9.85765 20.1602 10.1338L19.2942 10.6338C18.8159 10.9099 18.652 11.5215 18.9282 11.9998C19.2043 12.4781 19.8159 12.642 20.2942 12.3658L21.1602 11.8658C21.6385 11.5897 21.8024 10.9781 21.5263 10.4998Z" fill="#EB661B"/>
</svg>
