<svg width="24" height="24" viewBox="0 0 24 24" fill="none" xmlns="http://www.w3.org/2000/svg">
<mask id="path-1-inside-1_511_7491" fill="white">
<path fill-rule="evenodd" clip-rule="evenodd" d="M14.0899 3.92774C14.8188 4.10111 14.5662 5.34832 13.9141 5.71727V5.71727C11.6997 6.97008 10.9203 9.78075 12.1731 11.9951C13.4259 14.2094 16.2366 14.9889 18.4509 13.7361V13.7361C19.103 13.3671 20.3022 13.7929 20.0754 14.5071C19.4641 16.4317 18.1524 18.1392 16.2562 19.212C12.2704 21.4671 7.21121 20.0641 4.95616 16.0783C2.7011 12.0925 4.10414 7.03324 8.08994 4.77819C9.98615 3.70537 12.1253 3.46048 14.0899 3.92774Z"/>
</mask>
<path d="M20.0754 14.5071L18.1693 13.9016L20.0754 14.5071ZM14.0899 3.92774L13.6271 5.87346L14.0899 3.92774ZM13.9138 11.0102C13.2049 9.75727 13.646 8.16687 14.8989 7.45798L12.9292 3.97656C9.75352 5.77328 8.63564 9.80423 10.4324 12.9799L13.9138 11.0102ZM17.466 11.9954C16.2131 12.7043 14.6227 12.2632 13.9138 11.0102L10.4324 12.9799C12.2291 16.1556 16.26 17.2735 19.4357 15.4768L17.466 11.9954ZM18.1693 13.9016C17.7047 15.3642 16.7111 16.6568 15.2714 17.4713L17.2411 20.9528C19.5938 19.6217 21.2235 17.4992 21.9816 15.1125L18.1693 13.9016ZM15.2714 17.4713C12.2469 19.1825 8.40801 18.1178 6.69687 15.0934L3.21545 17.0631C6.01442 22.0103 12.2939 23.7517 17.2411 20.9528L15.2714 17.4713ZM6.69687 15.0934C4.98573 12.069 6.05036 8.23004 9.07479 6.5189L7.1051 3.03748C2.15793 5.83645 0.416474 12.1159 3.21545 17.0631L6.69687 15.0934ZM9.07479 6.5189C10.5145 5.70433 12.1342 5.51839 13.6271 5.87346L14.5527 1.98202C12.1164 1.40257 9.45776 1.7064 7.1051 3.03748L9.07479 6.5189ZM19.4357 15.4768C19.2359 15.5898 19.0785 15.6002 19.0198 15.6004C18.956 15.6007 18.8911 15.5903 18.8123 15.5568C18.7494 15.5302 18.5379 15.4292 18.3506 15.1514C18.1198 14.8089 18.0306 14.3383 18.1693 13.9016L21.9816 15.1125C22.2337 14.3187 22.0796 13.5271 21.6674 12.9155C21.2987 12.3686 20.7891 12.0502 20.3732 11.874C19.6009 11.5466 18.4626 11.4315 17.466 11.9954L19.4357 15.4768ZM14.8989 7.45798C15.8955 6.89416 16.3831 5.8592 16.5003 5.02856C16.5634 4.5813 16.5529 3.98059 16.274 3.38285C15.9621 2.7145 15.3629 2.17472 14.5527 1.98202L13.6271 5.87346C13.1814 5.76744 12.8239 5.44858 12.6493 5.07437C12.5076 4.77076 12.5299 4.53742 12.5395 4.46976C12.5514 4.38498 12.5759 4.32397 12.609 4.26944C12.6394 4.21921 12.7294 4.08962 12.9292 3.97656L14.8989 7.45798Z" fill="#9B51E0" mask="url(#path-1-inside-1_511_7491)"/>
</svg>
